<svg width="416" height="107" viewBox="0 0 416 107" fill="none" xmlns="http://www.w3.org/2000/svg">
<path d="M53.5 0C42.9187 0 32.575 3.13772 23.777 9.01637C14.979 14.895 8.12176 23.2506 4.07247 33.0264C0.0231807 42.8023 -1.0363 53.5593 1.02801 63.9373C3.09232 74.3153 8.1877 83.8481 15.6698 91.3302C23.1519 98.8123 32.6847 103.908 43.0627 105.972C53.4407 108.036 64.1977 106.977 73.9736 102.928C83.7494 98.8782 92.105 92.021 97.9836 83.223C103.862 74.425 107 64.0813 107 53.5C107 39.3109 101.363 25.703 91.3302 15.6698C81.297 5.63659 67.6891 0 53.5 0ZM53.5 98.7692C44.5466 98.7692 35.7943 96.1142 28.3498 91.14C20.9053 86.1657 15.103 79.0956 11.6767 70.8238C8.25038 62.5519 7.3539 53.4498 9.10063 44.6684C10.8473 35.887 15.1588 27.8208 21.4898 21.4898C27.8209 15.1588 35.8871 10.8473 44.6684 9.1006C53.4498 7.35388 62.5519 8.25036 70.8238 11.6767C79.0957 15.103 86.1657 20.9053 91.14 28.3498C96.1142 35.7942 98.7692 44.5466 98.7692 53.5C98.7692 65.5061 93.9998 77.0205 85.5102 85.5102C77.0206 93.9998 65.5062 98.7692 53.5 98.7692Z" fill="#05051B"/>
<path d="M32.0611 52.4298C32.4436 52.8156 32.8988 53.1217 33.4003 53.3307C33.9018 53.5396 34.4397 53.6472 34.983 53.6472C35.5263 53.6472 36.0642 53.5396 36.5657 53.3307C37.0672 53.1217 37.5223 52.8156 37.9049 52.4298L47.5761 42.7587C49.3933 40.9154 50.5015 38.4898 50.7052 35.9093C50.909 33.3289 50.1952 30.7594 48.6898 28.6538C47.1843 26.5481 44.9839 25.0415 42.4763 24.3996C39.9687 23.7577 37.315 24.0216 34.983 25.1448C32.6474 23.9523 29.9612 23.6378 27.4133 24.2586C24.8654 24.8795 22.625 26.3944 21.0998 28.5277C19.5746 30.661 18.8659 33.271 19.1027 35.8827C19.3394 38.4945 20.5059 40.9344 22.3899 42.7587L32.0611 52.4298ZM28.1926 32.9229C28.4424 32.6615 28.7425 32.4534 29.075 32.3112C29.4074 32.169 29.7653 32.0957 30.1268 32.0957C30.4884 32.0957 30.8462 32.169 31.1787 32.3112C31.5111 32.4534 31.8113 32.6615 32.0611 32.9229C32.4436 33.3086 32.8988 33.6148 33.4003 33.8237C33.9018 34.0327 34.4397 34.1402 34.983 34.1402C35.5263 34.1402 36.0642 34.0327 36.5657 33.8237C37.0672 33.6148 37.5223 33.3086 37.9049 32.9229C38.1576 32.6666 38.4587 32.4631 38.7908 32.3241C39.1228 32.1852 39.4792 32.1137 39.8391 32.1137C40.1991 32.1137 40.5554 32.1852 40.8875 32.3241C41.2195 32.4631 41.5207 32.6666 41.7734 32.9229C42.0348 33.1727 42.2429 33.4729 42.3851 33.8053C42.5273 34.1378 42.6006 34.4956 42.6006 34.8571C42.6006 35.2187 42.5273 35.5765 42.3851 35.909C42.2429 36.2414 42.0348 36.5416 41.7734 36.7914L34.983 43.7052L28.1926 37.0383C27.9312 36.7885 27.7231 36.4884 27.5809 36.1559C27.4387 35.8235 27.3654 35.4656 27.3654 35.1041C27.3654 34.7425 27.4387 34.3847 27.5809 34.0522C27.7231 33.7198 27.9312 33.4196 28.1926 33.1698V32.9229Z" fill="#05051B"/>
<path d="M69.0996 52.4298C69.4821 52.8156 69.9373 53.1217 70.4388 53.3307C70.9403 53.5396 71.4782 53.6472 72.0215 53.6472C72.5648 53.6472 73.1027 53.5396 73.6042 53.3307C74.1057 53.1217 74.5608 52.8156 74.9434 52.4298L84.6145 42.7587C86.4318 40.9154 87.54 38.4898 87.7437 35.9093C87.9475 33.3289 87.2337 30.7594 85.7283 28.6538C84.2228 26.5481 82.0224 25.0415 79.5148 24.3996C77.0072 23.7577 74.3535 24.0216 72.0215 25.1448C69.6859 23.9523 66.9997 23.6378 64.4518 24.2586C61.9039 24.8795 59.6635 26.3944 58.1383 28.5277C56.6131 30.661 55.9044 33.271 56.1412 35.8827C56.3779 38.4945 57.5444 40.9344 59.4284 42.7587L69.0996 52.4298ZM65.2311 32.9229C65.4809 32.6615 65.781 32.4534 66.1135 32.3112C66.4459 32.169 66.8037 32.0957 67.1653 32.0957C67.5269 32.0957 67.8847 32.169 68.2172 32.3112C68.5496 32.4534 68.8498 32.6615 69.0996 32.9229C69.4821 33.3086 69.9373 33.6148 70.4388 33.8237C70.9403 34.0327 71.4782 34.1402 72.0215 34.1402C72.5648 34.1402 73.1027 34.0327 73.6042 33.8237C74.1057 33.6148 74.5608 33.3086 74.9434 32.9229C75.1961 32.6666 75.4972 32.4631 75.8293 32.3241C76.1613 32.1852 76.5177 32.1137 76.8776 32.1137C77.2376 32.1137 77.5939 32.1852 77.926 32.3241C78.258 32.4631 78.5592 32.6666 78.8119 32.9229C79.0733 33.1727 79.2814 33.4729 79.4236 33.8053C79.5657 34.1378 79.6391 34.4956 79.6391 34.8571C79.6391 35.2187 79.5657 35.5765 79.4236 35.909C79.2814 36.2414 79.0733 36.5416 78.8119 36.7914L72.0215 43.7052L65.2311 37.0383C64.9696 36.7885 64.7615 36.4884 64.6194 36.1559C64.4772 35.8235 64.4039 35.4656 64.4039 35.1041C64.4039 34.7425 64.4772 34.3847 64.6194 34.0522C64.7615 33.7198 64.9696 33.4196 65.2311 33.1698V32.9229Z" fill="#05051B"/>
<path d="M82.3075 57.6155C81.216 57.6155 80.1693 58.0491 79.3975 58.8209C78.6257 59.5927 78.1921 60.6394 78.1921 61.7309C78.1921 73.0894 67.1217 82.3078 53.4998 82.3078C39.8779 82.3078 28.8075 73.0894 28.8075 61.7309C28.8075 60.6394 28.3739 59.5927 27.6022 58.8209C26.8304 58.0491 25.7836 57.6155 24.6921 57.6155C23.6007 57.6155 22.5539 58.0491 21.7821 58.8209C21.0103 59.5927 20.5768 60.6394 20.5768 61.7309C20.5768 77.6163 35.351 90.5386 53.4998 90.5386C71.6487 90.5386 86.4229 77.6163 86.4229 61.7309C86.4229 60.6394 85.9893 59.5927 85.2175 58.8209C84.4457 58.0491 83.399 57.6155 82.3075 57.6155Z" fill="#05051B"/>
<path d="M166.891 70.437H144.304L139.677 83.255H128.227L149.559 27.1562H162.107L183.283 83.255H171.518L166.891 70.437ZM147.912 60.4674H163.284L155.598 39.2621L147.912 60.4674Z" fill="#05051B"/>
<path d="M209.844 73.1272C212.093 73.1272 214.236 72.7843 216.275 72.0986C218.314 71.3601 220.092 70.2523 221.608 68.7754C223.125 67.2984 224.327 65.4522 225.216 63.2367C226.105 60.9685 226.549 58.3046 226.549 55.2452C226.549 52.1857 226.105 49.5483 225.216 47.3328C224.327 45.0646 223.125 43.192 221.608 41.715C220.144 40.238 218.393 39.1303 216.354 38.3918C214.315 37.6533 212.171 37.284 209.923 37.284H201.217V73.1272H209.844ZM190.394 83.255V27.1562H210.315C214.288 27.1562 217.948 27.7892 221.295 29.0552C224.641 30.3211 227.517 32.1674 229.922 34.5938C232.379 36.9676 234.287 39.8951 235.647 43.3766C237.059 46.858 237.764 50.8142 237.764 55.2452C237.764 59.6761 237.059 63.6323 235.647 67.1138C234.287 70.5952 232.379 73.5228 229.922 75.8965C227.464 78.2702 224.562 80.0901 221.216 81.3561C217.87 82.6221 214.21 83.255 210.236 83.255H190.394Z" fill="#05051B"/>
<path d="M266.597 52.7132C269.316 52.7132 271.433 52.0011 272.949 50.5769C274.518 49.0999 275.302 47.1482 275.302 44.7217C275.302 42.1897 274.518 40.2116 272.949 38.7874C271.433 37.3632 269.316 36.6511 266.597 36.6511H258.048V52.7132H266.597ZM257.97 62.129V83.255H247.147V27.1562H267.93C270.649 27.1562 273.132 27.6046 275.381 28.5013C277.629 29.3453 279.563 30.5585 281.184 32.141C282.805 33.6707 284.034 35.5169 284.87 37.6797C285.759 39.7896 286.204 42.1106 286.204 44.6426C286.204 47.1745 285.759 49.5219 284.87 51.6846C284.034 53.8473 282.805 55.6935 281.184 57.2233C279.563 58.753 277.629 59.9662 275.381 60.863C273.132 61.707 270.649 62.129 267.93 62.129H257.97Z" fill="#05051B"/>
<path d="M294.479 83.255V27.1562H305.302V72.8107H330.085V83.255H294.479Z" fill="#05051B"/>
<path d="M337.58 83.255V44.3261H348.011V83.255H337.58ZM336.325 31.5871C336.325 29.7409 336.953 28.1848 338.208 26.9188C339.462 25.6528 340.979 25.0198 342.756 25.0198C344.586 25.0198 346.103 25.6528 347.305 26.9188C348.56 28.1848 349.187 29.7409 349.187 31.5871C349.187 33.3279 348.56 34.8312 347.305 36.0972C346.103 37.3632 344.586 37.9962 342.756 37.9962C340.979 37.9962 339.462 37.3632 338.208 36.0972C336.953 34.8312 336.325 33.3279 336.325 31.5871Z" fill="#05051B"/>
<path d="M364.825 70.437C364.93 71.9667 365.557 73.3382 366.707 74.5514C367.857 75.7646 369.583 76.3713 371.883 76.3713C373.609 76.3713 374.89 76.002 375.726 75.2635C376.563 74.4723 376.981 73.5492 376.981 72.4942C376.981 71.5975 376.667 70.8326 376.04 70.1996C375.413 69.5139 374.341 69.0127 372.825 68.6962L367.727 67.5094C363.962 66.6654 361.217 65.2148 359.492 63.1576C357.767 61.0476 356.904 58.6211 356.904 55.8782C356.904 54.1374 357.27 52.5022 358.002 50.9725C358.734 49.39 359.727 48.0449 360.982 46.9372C362.289 45.7767 363.805 44.8536 365.531 44.1678C367.308 43.4821 369.243 43.1392 371.334 43.1392C374.053 43.1392 376.354 43.5348 378.236 44.3261C380.118 45.0646 381.635 46.0141 382.785 47.1745C383.987 48.335 384.876 49.5746 385.451 50.8934C386.026 52.1593 386.366 53.3198 386.471 54.3748L377.765 56.3529C377.661 55.7727 377.478 55.1924 377.216 54.6122C377.007 53.9792 376.641 53.399 376.118 52.8715C375.596 52.344 374.942 51.922 374.158 51.6055C373.426 51.289 372.511 51.1307 371.413 51.1307C370.053 51.1307 368.877 51.5 367.884 52.2385C366.942 52.977 366.472 53.9001 366.472 55.0078C366.472 55.9573 366.786 56.7222 367.413 57.3024C368.093 57.8826 368.955 58.2783 370.001 58.4893L375.491 59.6761C379.308 60.4674 382.157 61.9443 384.04 64.1071C385.974 66.2698 386.941 68.7754 386.941 71.6238C386.941 73.2063 386.628 74.7624 386 76.2921C385.425 77.8219 384.51 79.1934 383.255 80.4066C382.001 81.6198 380.432 82.5957 378.55 83.3342C376.667 84.0727 374.471 84.4419 371.962 84.4419C369.034 84.4419 366.576 84.0199 364.59 83.1759C362.603 82.3319 360.982 81.3033 359.727 80.0901C358.472 78.8769 357.531 77.5845 356.904 76.213C356.329 74.7888 355.989 73.5228 355.884 72.4151L364.825 70.437Z" fill="#05051B"/>
<path d="M408.19 44.3261H415.955V53.6627H408.19V69.9622C408.19 71.6502 408.556 72.8371 409.288 73.5228C410.073 74.1558 411.223 74.4723 412.739 74.4723C413.367 74.4723 413.994 74.4459 414.621 74.3932C415.249 74.3404 415.693 74.2613 415.955 74.1558V82.8594C415.484 83.0704 414.752 83.2814 413.759 83.4924C412.818 83.7034 411.589 83.8089 410.073 83.8089C406.308 83.8089 403.328 82.7539 401.132 80.644C398.936 78.534 397.838 75.58 397.838 71.7821V53.6627H390.858V44.3261H392.819C394.858 44.3261 396.348 43.7458 397.289 42.5854C398.282 41.3721 398.779 39.8951 398.779 38.1544V32.6949H408.19V44.3261Z" fill="#05051B"/>
</svg>
